<svg width="53" height="43" viewBox="0 0 53 43" fill="none" xmlns="http://www.w3.org/2000/svg">
<path d="M44.9542 10.0931C45.1311 8.92413 45.3011 7.75515 45.5057 6.46535C45.9948 6.79188 46.4284 6.93229 46.5464 7.19025C48.5316 11.0637 50.1666 15.0877 51.4338 19.2196C52.0721 21.8907 52.8838 24.4441 50.1365 26.5307C48.2669 27.9478 50.1643 32.0196 45.9567 31.7911C43.9726 34.7919 40.7952 34.4915 37.7531 34.2858C37.2206 36.2287 36.5496 38.1356 35.7447 39.9935C34.7353 41.9527 31.5093 42.5143 28.051 41.5837C27.2601 41.3715 26.497 40.6498 25.7755 40.7086C20.1734 41.169 20.1838 41.2082 17.8251 37.0482C16.5316 35.0374 15.3596 32.9596 14.3147 30.8245C13.8386 29.5868 13.085 28.46 12.1052 27.5208C11.1254 26.5816 9.94236 25.8519 8.63637 25.3813C6.6252 24.5856 4.86338 23.3193 3.5181 21.7026C2.17281 20.0859 1.28868 18.1724 0.949613 16.1437C0.701245 14.262 1.00851 12.3522 1.83766 10.6241C2.66682 8.89604 3.9858 7.41644 5.64977 6.3478L11.5709 13.6327C11.5709 10.5698 11.5362 8.50943 11.5709 6.44902C11.6056 4.38861 11.8519 4.81637 15.2929 3.36004C17.7557 2.31841 21.3181 3.58208 22.7334 0.372286L30.0178 0.111062C34.5029 -0.0554688 38.4815 0.404939 40.5697 5.09719C41.771 6.95147 43.2487 8.63392 44.9577 10.0931" fill="#2FACB2"/>
</svg>
