<svg width="48" height="32" viewBox="0 0 48 32" fill="none" xmlns="http://www.w3.org/2000/svg">
<path d="M27.225 52.0798C19.5556 49.1051 16.2568 43.59 12.9789 38.2022C10.0709 33.4794 7.5208 28.5693 5.3476 23.5083C3.19698 18.4536 -0.524988 13.67 1.13654 7.3124C5.99279 10.4961 5.58695 16.5793 10.2455 20.6479C9.39217 14.2283 5.84364 9.2422 4.07457 2.47322L8.49723 4.75893C8.69842 3.63893 8.92735 2.47322 9.14242 1.33036L15.5388 0.1875C16.1666 1.13117 16.9887 2.52546 17.9669 3.81526C21.7825 8.84057 21.7825 8.81771 28.72 11.1328C29.4866 11.4252 30.217 11.7952 30.8984 12.2365C36.4287 15.1032 40.995 19.3712 44.0797 24.5565C45.4603 27.0422 46.3133 29.7572 46.591 32.55C46.6813 33.1358 46.9739 33.6774 47.4235 34.0912C47.6373 34.2643 47.7994 34.4868 47.894 34.7369C47.9886 34.9869 48.0124 35.2558 47.9631 35.5171C47.9137 35.7784 47.7929 36.0232 47.6125 36.2272C47.4322 36.4312 47.1985 36.5874 46.9344 36.6806C43.9097 38.2871 42.602 41.4447 39.9172 43.3353C39.4282 43.7339 39.036 44.2268 38.7673 44.7806C38.4986 45.3344 38.3596 45.9362 38.3597 46.5451C37.8736 47.6322 37.0673 48.5659 36.036 49.2358C35.0047 49.9058 33.7914 50.2842 32.5391 50.3263C31.4499 50.0879 30.7458 48.2071 29.2646 49.5949C28.5211 50.3801 27.8329 51.2102 27.2042 52.0798" fill="#2FACB2"/>
</svg>
