<svg width="36" height="44" viewBox="0 0 36 44" fill="none" xmlns="http://www.w3.org/2000/svg">
<path d="M6.44906 16.1168L9.78599 17.1845C10.0288 11.8556 4.18049 10.36 3.36534 5.45555C4.36017 5.76243 5.3154 6.17315 6.21318 6.68004C7.42706 7.68991 8.58485 8.75799 9.68193 9.88004C9.54385 7.95808 8.68303 6.14525 7.25381 4.76657C10.8127 0.724121 10.8127 0.724121 14.9752 0.724121C16.9935 3.48217 19.4208 5.95405 22.1833 8.06453C25.4335 9.93555 26.3909 13.1258 28.7739 15.4147C30.9671 17.8058 32.7677 20.4924 34.1158 23.3854C35.0613 24.9291 35.5029 26.7008 35.3854 28.4792C35.0385 30.5168 34.1158 33.5111 32.5861 34.089C30.0678 35.0425 30.6332 36.7176 29.8388 38.1609C29.3949 39.23 28.6803 40.1808 27.7572 40.9308C26.8341 41.6808 25.7304 42.2073 24.5421 42.4646C22.9499 42.7094 21.056 43.8523 19.887 43.3592C16.9563 42.2331 14.2831 40.5868 12.0129 38.5103C8.0872 34.4778 4.44206 30.2109 1.10024 25.7364C0.264275 24.6262 0.659713 22.6768 0.406494 20.4792L2.93868 22.3992C2.44612 19.1666 5.44659 18.0596 6.44906 16.1135" fill="#2FACB2"/>
</svg>
