<svg width="48" height="46" viewBox="0 0 48 46" fill="none" xmlns="http://www.w3.org/2000/svg">
<path d="M3.8947 4.23242L6.6697 6.84467C6.88823 5.05201 7.07207 3.57936 7.27326 1.96303C10.0483 1.41772 12.8961 0.728745 15.796 0.330377C17.5691 0.0819315 19.3716 0.0819315 21.1448 0.330377C22.4768 0.526296 21.4327 2.86426 23.9198 3.06671C25.5258 3.20058 26.7607 5.76711 27.9019 7.5565C28.8315 9.00957 27.4406 12.1508 30.9648 11.9647C31.0851 14.0196 31.2076 16.0768 31.3325 18.1361C31.3517 18.3366 31.3818 18.5361 31.4227 18.7337L41.4231 28.1475C42.5184 28.0773 43.6178 28.0871 44.7115 28.1769C46.3834 28.4316 48.1802 29.9892 47.3235 30.9557C45.4191 33.1043 48.8324 34.59 47.4795 36.3435C43.9669 37.688 40.1074 38.0132 36.3969 37.2773C37.4583 39.4357 38.381 41.3165 39.5396 43.6839C38.8632 44.2945 37.9717 45.7835 37.0941 45.7802C31.5441 45.741 25.7131 47.0635 20.7702 43.3606C19.3246 42.4921 17.9835 41.4783 16.7707 40.3369C14.3946 37.5353 12.2613 34.5443 10.0968 31.5892C9.02845 30.1328 8.11616 28.572 7.08941 27.083C5.51113 24.7973 5.98288 21.4798 3.06913 19.8341C3.06844 17.2381 2.26972 14.6979 0.769352 12.5198C0.374879 11.7863 0.14271 10.985 0.086912 10.1646C0.0311142 9.34411 0.152849 8.52154 0.444742 7.74668C0.736634 6.97182 1.19261 6.26081 1.78503 5.65674C2.37745 5.05267 3.09399 4.56811 3.89123 4.23242" fill="#2FACB2"/>
</svg>
