<svg width="22" height="50" viewBox="0 0 22 50" fill="none" xmlns="http://www.w3.org/2000/svg">
<path d="M-15.3632 23.581L-24.5797 14.9051C-24.7131 12.5532 -24.6737 10.1955 -24.4617 7.84878C-24.3299 6.94429 -22.9389 6.02674 -21.9053 5.49449C-21.5133 5.28878 -20.5178 6.14755 -19.7685 6.52959C-18.7903 4.70755 -18.218 2.24225 -14.9123 2.84306C-14.2772 3.01162 -13.5981 2.95107 -13.0079 2.67327C-12.3251 1.943 -11.4634 1.38052 -10.4975 1.03457C-9.5316 0.688618 -8.49064 0.569645 -7.46486 0.687962C-3.55692 1.2464 0.169094 2.61971 3.4409 4.70755C9.57253 9.25696 14.4506 15.1291 17.6628 21.8275C19.4869 25.9821 20.8808 30.2927 21.8253 34.6994C22.0575 35.8331 21.945 37.0055 21.5007 38.0816C21.0564 39.1578 20.2984 40.094 19.3139 40.7826C15.4983 43.3035 11.811 46.0267 7.90517 48.4235C6.49503 49.295 4.83183 49.732 3.14605 49.6741C-1.53162 49.6288 -6.04744 48.0558 -9.62968 45.2239C-13.2119 42.3919 -15.6382 38.4768 -16.494 34.1475C-17.1874 32.7261 -17.6022 31.1984 -17.7185 29.6382C-17.1686 27.5443 -16.3777 25.5133 -15.3597 23.581" fill="#2FACB2"/>
</svg>
