<svg width="46" height="38" viewBox="0 0 46 38" fill="none" xmlns="http://www.w3.org/2000/svg">
<path d="M7.52882 18.9519C7.44081 18.191 7.45947 17.4225 7.58432 16.6662C7.73 16.1405 8.68391 15.7846 8.77063 15.2785C8.85735 14.7723 8.18441 14.103 8.18441 13.4923C8.18441 12.9601 8.97529 12.307 8.81919 11.9152C8.47469 11.1677 7.93252 10.5156 7.24438 10.0213C6.60035 9.72352 5.90705 9.53138 5.19435 9.45316C5.61407 10.8246 5.95054 11.9315 6.29394 13.045C3.90051 11.6801 1.24691 10.5927 2.42282 7.30459L5.56551 8.57479C5.95054 4.63357 2.05513 6.67765 0.553162 4.80663C2.74888 5.05153 4.21269 3.62785 6.42229 3.90214C7.46291 4.02949 8.77757 1.98214 10.3489 0.581325L17.8275 6.32826L18.549 2.18785L28.4419 0.388672C30.1763 2.45561 31.5083 4.34296 33.1455 5.96581C34.5677 7.36989 36.5206 8.30377 37.8908 9.74377C41.3991 13.928 43.8626 18.8015 45.0988 24.0034C45.6677 25.8189 46.2956 28.6891 42.6118 29.1756C42.6118 32.5062 38.8967 33.0058 37.2144 35.1152C36.0088 36.4007 34.371 37.2578 32.5748 37.5431C30.7785 37.8284 28.9327 37.5246 27.3458 36.6825C21.817 34.1563 17.0534 30.3594 13.4951 25.6425C11.5664 23.4809 9.40194 21.4401 7.52882 18.9552" fill="#2FACB2"/>
</svg>
