<svg width="42" height="47" viewBox="0 0 42 47" fill="none" xmlns="http://www.w3.org/2000/svg">
<path d="M41.2557 33.4325L37.1487 34.0856L38.7999 36.9949L28.848 46.3664C28.2273 46.3119 27.6025 46.3119 26.9818 46.3664C19.4338 47.6725 14.4041 43.6496 10.2139 38.7843C6.89439 34.9538 4.11378 30.7362 1.94092 26.2358C0.193742 23.4205 -0.382209 20.0954 0.324487 16.9035L6.70352 30.066L7.79271 29.7394C7.70578 28.9239 7.53145 28.1187 7.27239 27.3362C5.90917 24.2766 4.35517 21.2954 3.06827 18.2096C2.49939 16.8447 1.27492 15.1468 4.38986 14.5133C5.35071 14.3174 5.91264 12.368 6.64455 11.2154C7.28627 10.2031 7.90717 9.1778 8.41708 8.36148C11.5632 8.09046 11.5945 10.6798 13.5543 11.7476L12.0419 6.34352L15.7361 3.58433C16.586 4.3778 17.7099 5.64474 18.754 3.31005C19.8882 0.78923 21.5636 -0.193627 24.2589 1.46188C24.5051 1.61209 25.015 1.72964 25.1781 1.60229C28.3208 -0.833627 30.1696 1.60229 31.623 3.45699C34.7096 8.09738 37.1244 13.1049 38.8033 18.3468C39.2924 19.5419 40.3573 22.3435 36.7776 22.4807C36.5764 22.4807 36.4307 23.5354 36.2434 24.1133C36.9892 24.2831 38.1339 24.8252 38.4183 24.5574C38.6151 24.276 38.9075 24.0657 39.2477 23.961C39.5878 23.8563 39.9557 23.8632 40.2911 23.9807C40.6265 24.0982 40.9097 24.3193 41.0944 24.6079C41.279 24.8966 41.3543 25.2356 41.3078 25.5696C40.1006 28.2374 42.8965 30.817 41.2488 33.4488" fill="#2FACB2"/>
</svg>
