<svg width="55" height="60" viewBox="0 0 55 60" fill="none" xmlns="http://www.w3.org/2000/svg">
<path d="M31.4976 59.1435C28.1676 56.0088 25.3684 52.9394 22.1112 50.3892C12.7456 43.0847 8.31946 32.7566 2.72783 23.1337C0.216459 18.817 0.93449 13.9647 1.04202 9.29206C1.06283 8.48226 2.25261 7.69533 2.94636 6.84635L6.08905 12.6945V4.04145C7.93123 3.40659 9.67975 2.55288 11.2922 1.50104C11.9769 0.967369 12.8003 0.615235 13.6777 0.480927C14.5551 0.34662 15.4547 0.434998 16.2837 0.736954C18.0882 1.44582 19.7714 2.40202 21.2787 3.57451C20.6476 7.91097 21.7989 12.3107 24.4977 15.8749C26.6032 15.3394 29.0869 16.7468 31.1959 14.7125C31.5783 14.4993 32.0106 14.3779 32.4546 14.3591C32.8986 14.3404 33.3407 14.4247 33.7419 14.6047C38.9034 17.5435 45.2408 19.0815 47.8528 25.0831C48.3211 26.1672 48.8414 27.5647 49.7849 28.0447C51.2071 28.7696 49.9306 31.0325 52.3726 31.1206C54.381 31.1925 53.0975 33.1223 53.4583 34.1704C53.9889 35.4459 54.4224 36.7554 54.7556 38.0888C54.8831 39.3447 54.8994 40.6084 54.8042 41.8668C49.8483 46.0783 46.0585 51.3641 43.7631 57.266L31.5011 59.1468" fill="#2FACB2"/>
</svg>
