<svg width="7" height="45" viewBox="0 0 7 45" fill="none" xmlns="http://www.w3.org/2000/svg">
<path d="M-33.6122 5.6435L-30.4904 10.2574C-30.1747 8.05003 -30.0533 7.29574 -29.9631 6.53819C-29.6717 4.02717 -29.6787 4.03044 -26.3071 3.70717C-25.8839 3.66472 -25.2352 3.70717 -25.0861 3.49493C-24.4686 2.48292 -23.4948 1.70582 -22.3332 1.29799C-21.1716 0.890168 -19.8951 0.877245 -18.7244 1.26146C-15.896 1.91367 -13.2328 3.08671 -10.8885 4.71289C-3.02335 11.4909 2.85123 20.0643 6.16737 29.6043C6.52247 31.4043 6.55296 33.2478 6.25756 35.0574L3.68722 34.7864C3.85719 37.0721 3.3126 38.7439 0.489033 39.2794C-0.0175438 39.4528 -0.471706 39.7396 -0.83429 40.115C-1.19688 40.4905 -1.457 40.9433 -1.59222 41.4345C-1.87666 44.1708 -4.86325 42.8386 -5.90388 44.2623C-7.56888 41.7708 -10.4132 44.788 -12.3002 43.0051C-14.0936 41.3006 -16.546 39.9847 -17.7288 37.9831C-20.4632 33.6213 -22.6903 28.9949 -24.3715 24.1839C-24.624 23.1085 -25.1036 22.0919 -25.7817 21.1944C-26.4598 20.2969 -27.3227 19.5369 -28.3189 18.9594C-31.5459 17.3099 -34.1358 14.7417 -35.7178 11.6223C-37.0463 8.90554 -37.1053 8.93166 -33.6122 5.6435Z" fill="#2FACB2"/>
</svg>
