<svg width="33" height="27" viewBox="0 0 33 27" fill="none" xmlns="http://www.w3.org/2000/svg">
<path d="M0.941289 7.68069L6.50863 9.21538C7.08509 8.30533 7.32523 7.24121 7.19157 6.18915C7.05791 5.13709 6.55797 4.15629 5.76979 3.39987C8.12854 1.3819 9.69988 4.42517 12.0135 4.09538C12.2251 2.98517 12.4575 1.82599 12.6899 0.692924C14.5006 -1.13238 16.1344 2.23415 18.3232 0.64721C20.512 -0.939731 21.1259 2.53129 23.0303 2.93293C24.1836 3.36523 25.1706 4.11667 25.8608 5.08803C28.3895 8.00722 28.7815 12.1346 32.1878 14.6815C33.0029 15.2889 32.5694 17.3819 32.7497 19.2529C28.9757 17.5093 28.7468 23.1452 25.1185 21.8097C24.0015 23.5142 25.056 26.5999 20.956 26.9689L18.8782 23.6448L17.2548 26.8383C14.9654 27.3509 13.9144 25.4897 13.1617 24.3076C10.7477 20.4592 7.33081 17.2539 3.23413 14.995C2.55053 14.6791 1.94402 14.2331 1.45302 13.6852C0.962016 13.1372 0.597204 12.4993 0.381677 11.8117C0.16615 11.1242 0.104603 10.402 0.200931 9.69093C0.297259 8.97983 0.549365 8.29531 0.941289 7.68069Z" fill="#2FACB2"/>
</svg>
